<?xml version="1.0" standalone="no"?>
<!DOCTYPE svg PUBLIC "-//W3C//DTD SVG 20010904//EN"
 "http://www.w3.org/TR/2001/REC-SVG-20010904/DTD/svg10.dtd">
<svg version="1.0" xmlns="http://www.w3.org/2000/svg"
 width="260.000000pt" height="260.000000pt" viewBox="0 0 260.000000 260.000000"
 preserveAspectRatio="xMidYMid meet">
<metadata>
Created by potrace 1.11, written by Peter Selinger 2001-2013
</metadata>
<g transform="translate(0.000000,260.000000) scale(0.100000,-0.100000)"
fill="#000000" stroke="none">
<path d="M1192 2230 c-24 -11 -56 -29 -71 -40 -16 -10 -31 -17 -35 -13 -3 3
-6 2 -6 -4 0 -6 -13 -16 -30 -23 -16 -7 -30 -16 -30 -21 0 -5 -5 -9 -11 -9
-12 0 -128 -85 -146 -108 -7 -9 -13 -12 -13 -8 0 17 -136 -136 -183 -206 -51
-76 -70 -121 -42 -98 8 6 38 18 67 26 29 8 58 16 63 18 77 22 158 28 220 15
58 -11 90 -34 100 -69 3 -14 3 -20 -2 -14 -4 7 -28 22 -53 35 -99 52 -302 12
-540 -107 -30 -16 -57 -28 -60 -29 -3 0 -11 -4 -18 -8 -13 -9 -17 -28 -4 -25
4 0 14 -1 22 -5 16 -6 75 -20 75 -17 0 1 13 -4 29 -10 16 -6 44 -13 64 -16 19
-3 44 -8 56 -10 11 -3 49 -7 83 -9 34 -1 66 -6 71 -9 6 -3 12 -1 14 6 3 8 9 8
24 -1 12 -8 13 -11 3 -8 -9 3 -21 1 -26 -4 -22 -22 -148 -15 -268 14 -25 6
-27 -2 -27 -128 -1 -76 5 -141 16 -190 2 -5 7 -28 11 -50 11 -48 10 -46 17
-65 3 -8 13 -41 22 -72 18 -63 36 -84 36 -44 0 14 4 26 9 26 4 0 8 8 8 17 -1
23 38 107 71 153 53 73 153 146 217 158 40 7 200 10 210 4 6 -4 19 -7 30 -8
11 0 30 -4 43 -8 25 -8 26 -3 7 74 -8 32 -8 187 0 220 3 14 8 36 11 50 14 75
91 188 172 253 36 28 38 20 5 -15 -55 -59 -123 -173 -141 -238 -9 -32 -11
-180 -1 -180 5 0 9 -8 9 -17 1 -43 136 -182 178 -183 6 0 12 -3 12 -8 0 -4 15
-13 33 -21 17 -8 39 -20 47 -27 8 -7 17 -12 20 -12 3 0 46 -19 95 -43 50 -23
92 -43 95 -44 3 -1 17 -5 33 -9 15 -5 27 -12 27 -18 0 -5 4 -6 10 -3 5 3 19 1
30 -5 36 -20 105 -23 119 -7 18 23 4 58 -51 127 -39 48 -48 64 -37 71 52 31
218 191 265 255 45 61 69 127 69 187 -1 32 -5 61 -11 65 -6 4 -15 15 -21 26
-6 11 -13 14 -17 8 -3 -6 0 -17 8 -25 22 -21 26 -87 9 -132 -8 -22 -15 -46
-15 -52 -1 -7 -4 -13 -8 -13 -4 0 -12 -10 -17 -22 -25 -52 -142 -175 -233
-245 -30 -24 -61 -48 -67 -53 -10 -8 -5 -19 22 -48 62 -65 65 -68 65 -80 0 -7
4 -12 9 -12 14 0 20 -39 7 -43 -12 -5 -69 23 -74 36 -2 4 -8 5 -13 1 -5 -3 -9
-1 -9 4 0 7 -41 32 -60 37 -3 0 -21 9 -40 20 -19 10 -80 41 -136 69 -73 37
-100 55 -96 66 2 8 16 40 30 70 14 30 26 57 27 60 1 9 77 135 84 140 3 3 18
21 32 40 47 63 166 170 188 170 6 0 11 4 11 8 0 5 27 21 60 36 63 29 131 36
155 16 7 -6 16 -7 19 -2 8 14 -181 133 -234 147 -3 0 -30 9 -60 20 -30 10 -59
20 -65 21 -5 2 -21 6 -35 9 -14 3 -38 8 -55 11 -16 3 -36 13 -42 22 -7 9 -42
58 -79 108 -51 71 -70 90 -85 87 -10 -3 -19 -9 -19 -13 0 -18 -42 -18 -61 1
-19 19 -20 19 -47 -1 -25 -18 -32 -19 -55 -9 -15 7 -27 16 -27 21 0 13 -21 9
-68 -12z m128 -71 c0 4 11 13 24 20 21 12 26 11 45 -8 l22 -22 26 21 c14 11
29 20 34 20 11 0 149 -139 149 -151 0 -5 -12 -7 -27 -3 -66 15 -315 5 -383
-15 -14 -4 -35 -6 -47 -5 -13 1 -23 -2 -23 -5 0 -4 -10 -7 -22 -8 -33 -2 -78
-12 -98 -23 -10 -5 -20 -6 -24 -3 -3 3 -6 0 -6 -7 0 -7 -3 -11 -6 -8 -7 7 -54
-11 -149 -59 l-70 -34 65 63 c88 87 208 174 305 222 28 14 59 31 69 39 18 13
25 11 68 -14 26 -16 48 -25 48 -20z"/>
<path d="M2130 1806 c0 -2 7 -9 15 -16 13 -11 14 -10 9 4 -5 14 -24 23 -24 12z"/>
<path d="M865 1229 c-5 -5 -29 -22 -53 -37 -37 -25 -93 -90 -122 -143 -7 -13
4 -27 53 -65 121 -95 199 -197 201 -266 1 -15 4 -28 8 -28 4 0 7 -8 6 -17 -1
-44 160 -396 186 -406 7 -3 12 15 13 57 2 99 6 126 15 126 5 0 7 4 4 9 -13 20
48 172 103 256 48 74 124 155 188 202 23 17 40 32 38 35 -9 9 -177 -1 -189
-11 -7 -6 -15 -8 -18 -6 -7 7 -111 -34 -119 -47 -3 -5 -9 -9 -13 -8 -3 1 -26
-2 -51 -6 -28 -4 -50 -2 -59 5 -7 6 -15 8 -18 5 -10 -9 -101 91 -136 149 -38
63 -45 107 -25 156 13 35 7 57 -12 40z"/>
</g>
</svg>
